<svg xmlns="http://www.w3.org/2000/svg" version="1.1" xmlns:xlink="http://www.w3.org/1999/xlink" xmlns:svgjs="http://svgjs.dev/svgjs" width="1000" height="280" viewBox="0 0 1000 280"><g transform="matrix(1,0,0,1,-0.6060606060606233,-0.3666234986653478)"><svg viewBox="0 0 396 111" data-background-color="#ffffff" preserveAspectRatio="xMidYMid meet" height="280" width="1000" xmlns="http://www.w3.org/2000/svg" xmlns:xlink="http://www.w3.org/1999/xlink"><g id="tight-bounds" transform="matrix(1,0,0,1,0.2400000000000091,0.1453400298280485)"><svg viewBox="0 0 395.52 110.70931994034389" height="110.70931994034389" width="395.52"><g><svg viewBox="0 0 572.1165838363452 160.14016465188743" height="110.70931994034389" width="395.52"><g transform="matrix(1,0,0,1,0,45.216011635874)"><svg viewBox="0 0 395.52 69.70814138013944" height="69.70814138013944" width="395.52"><g id="textblocktransform"><svg viewBox="0 0 395.52 69.70814138013944" height="69.70814138013944" width="395.52" id="textblock"><g><svg viewBox="0 0 395.52 69.70814138013944" height="69.70814138013944" width="395.52"><g transform="matrix(1,0,0,1,0,0)"><svg width="395.52" viewBox="4.349999904632568 -36.22999954223633 207.9399871826172 36.65999984741211" height="69.70814138013944" data-palette-color="#096a2e"><path d="M33.4-35.83L33.4 0 28.53 0 28.53-16.3 9.22-16.3 9.22 0 4.35 0 4.35-35.83 9.22-35.83 9.22-19.85 28.53-19.85 28.53-35.83 33.4-35.83ZM56.07-3.85L56.07-3.85Q58.3-3.85 60.05-4.6 61.8-5.35 63.01-6.7 64.22-8.05 64.86-9.93 65.5-11.8 65.5-14.05L65.5-14.05 65.5-35.83 70.32-35.83 70.32-14.05Q70.32-10.95 69.34-8.3 68.35-5.65 66.51-3.71 64.67-1.78 62.02-0.68 59.37 0.43 56.07 0.43L56.07 0.43Q52.77 0.43 50.12-0.68 47.47-1.78 45.62-3.71 43.77-5.65 42.79-8.3 41.8-10.95 41.8-14.05L41.8-14.05 41.8-35.83 46.62-35.83 46.62-14.08Q46.62-11.83 47.26-9.95 47.9-8.08 49.11-6.73 50.32-5.38 52.09-4.61 53.85-3.85 56.07-3.85ZM81.15-35.83L81.15-35.83Q81.8-35.83 82.11-35.66 82.42-35.5 82.82-35L82.82-35 103.57-8Q103.5-8.65 103.47-9.26 103.45-9.88 103.45-10.45L103.45-10.45 103.45-35.83 107.7-35.83 107.7 0 105.25 0Q104.67 0 104.28-0.2 103.9-0.4 103.52-0.88L103.52-0.88 82.8-27.85Q82.85-27.23 82.87-26.63 82.9-26.03 82.9-25.53L82.9-25.53 82.9 0 78.65 0 78.65-35.83 81.15-35.83ZM132.42-3.53L132.42-3.53Q133.87-3.53 135.08-3.66 136.29-3.8 137.37-4.08 138.44-4.35 139.39-4.74 140.34-5.13 141.29-5.63L141.29-5.63 141.29-13.53 135.74-13.53Q135.27-13.53 134.98-13.8 134.69-14.08 134.69-14.48L134.69-14.48 134.69-17.23 145.69-17.23 145.69-3.48Q144.34-2.5 142.88-1.78 141.42-1.05 139.76-0.56 138.09-0.08 136.19 0.16 134.29 0.4 132.07 0.4L132.07 0.4Q128.17 0.4 124.92-0.94 121.67-2.27 119.32-4.69 116.97-7.1 115.66-10.48 114.34-13.85 114.34-17.9L114.34-17.9Q114.34-22 115.63-25.38 116.92-28.75 119.31-31.16 121.69-33.58 125.08-34.9 128.47-36.23 132.67-36.23L132.67-36.23Q134.79-36.23 136.62-35.91 138.44-35.6 140.01-35.01 141.57-34.43 142.89-33.59 144.22-32.75 145.37-31.7L145.37-31.7 143.99-29.5Q143.57-28.83 142.89-28.83L142.89-28.83Q142.49-28.83 142.02-29.1L142.02-29.1Q141.39-29.45 140.62-29.95 139.84-30.45 138.73-30.91 137.62-31.38 136.11-31.7 134.59-32.02 132.52-32.02L132.52-32.02Q129.49-32.02 127.04-31.04 124.59-30.05 122.87-28.21 121.14-26.38 120.22-23.76 119.29-21.15 119.29-17.9L119.29-17.9Q119.29-14.5 120.26-11.84 121.22-9.18 122.97-7.33 124.72-5.48 127.12-4.5 129.52-3.53 132.42-3.53ZM162.14-14.95L158.47-14.95 158.47 0 153.64 0 153.64-35.83 163.77-35.83Q167.17-35.83 169.64-35.14 172.12-34.45 173.73-33.15 175.34-31.85 176.12-30.01 176.89-28.18 176.89-25.9L176.89-25.9Q176.89-24 176.29-22.35 175.69-20.7 174.55-19.39 173.42-18.07 171.78-17.15 170.14-16.23 168.07-15.75L168.07-15.75Q168.97-15.23 169.67-14.23L169.67-14.23 180.12 0 175.82 0Q174.49 0 173.87-1.03L173.87-1.03 164.57-13.83Q164.14-14.43 163.64-14.69 163.14-14.95 162.14-14.95L162.14-14.95ZM158.47-32L158.47-18.48 163.54-18.48Q165.67-18.48 167.28-18.99 168.89-19.5 169.98-20.44 171.07-21.38 171.62-22.68 172.17-23.98 172.17-25.55L172.17-25.55Q172.17-28.75 170.05-30.38 167.94-32 163.77-32L163.77-32 158.47-32ZM212.29-35.83L199.14-14.25 199.14 0 194.31 0 194.31-14.25 181.19-35.83 185.44-35.83Q186.09-35.83 186.46-35.5 186.84-35.18 187.11-34.7L187.11-34.7 195.31-20.78Q195.81-19.9 196.15-19.13 196.49-18.35 196.76-17.6L196.76-17.6Q197.04-18.38 197.36-19.15 197.69-19.93 198.19-20.78L198.19-20.78 206.36-34.7Q206.59-35.1 206.98-35.46 207.36-35.83 207.99-35.83L207.99-35.83 212.29-35.83Z" opacity="1" transform="matrix(1,0,0,1,0,0)" fill="#096a2e" class="undefined-text-0" data-fill-palette-color="primary" id="text-0"></path></svg></g></svg></g></svg></g></svg></g><g transform="matrix(1,0,0,1,411.97641918445777,0)"><svg viewBox="0 0 160.14016465188743 160.14016465188743" height="160.14016465188743" width="160.14016465188743"><g><svg></svg></g><g id="icon-0"><svg viewBox="0 0 160.14016465188743 160.14016465188743" height="160.14016465188743" width="160.14016465188743"><g><rect width="145.60892748903098" height="145.60892748903098" x="7.265618581428228" y="7.265618581428228" fill="#096a2e" data-fill-palette-color="accent"></rect><rect width="145.60892748903098" height="145.60892748903098" x="2.6645352591003757e-15" y="2.6645352591003757e-15" fill="#096a2e" opacity="0.5" data-fill-palette-color="accent"></rect></g><g transform="matrix(1,0,0,1,20.758910232652077,36.110339787337935)"><svg viewBox="0 0 118.62234418658328 87.91948507721156" height="87.91948507721156" width="118.62234418658328"><g><svg xmlns="http://www.w3.org/2000/svg" xmlns:xlink="http://www.w3.org/1999/xlink" version="1.1" x="0" y="0" viewBox="164.5 244.99998474121094 688.0999755859375 510" style="enable-background:new 0 0 1000 1000;" xml:space="preserve" height="87.91948507721156" width="118.62234418658328" class="icon-s-0" data-fill-palette-color="background" id="s-0"><g fill="#ffffff" data-fill-palette-color="background"><path d="M813.7 711.8l-26.9-4.8c0.3-4.7 0.5-9.8 0.5-15.4 0.1-12.9-0.8-27.9-3.3-43.8-1.3-7.9-3-16-5.3-24.1-2.3-8.1-5-16.2-8.3-24.1-3.3-7.9-7.1-15.5-11.4-22.7-4.3-7.2-9-13.9-14-20.1-5-6.1-10.2-11.7-15.4-16.6-5.2-4.9-10.5-9.3-15.5-12.9-5-3.7-9.8-6.9-14.1-9.4-1.1-0.7-2.1-1.3-3.1-1.9-1-0.6-2-1.1-3-1.7-1.9-1.1-3.6-2-5.3-2.8-1.6-0.8-3-1.5-4.3-2.2-1.3-0.6-2.3-1.1-3.2-1.5-1.6-0.8-2.6-1.2-2.7-1.2 0.1 0.1 1 0.6 2.5 1.5 0.8 0.5 1.8 1.1 3 1.9 1.2 0.7 2.5 1.6 4 2.6 1.5 1 3.1 2.1 4.9 3.4 0.9 0.6 1.8 1.3 2.7 2 0.9 0.7 1.9 1.4 2.9 2.2 3.9 3 8.2 6.6 12.7 10.8 4.5 4.1 9 8.9 13.4 14.1 4.5 5.3 8.8 11.1 12.8 17.4 4 6.3 7.7 13.1 10.9 20.2 3.2 7.1 5.9 14.5 8.1 22.1 2.2 7.5 3.9 15.2 5.1 22.9 1.2 7.6 1.9 15.2 2.3 22.5 0.7 14.7-0.1 28.4-1.5 40-0.5 4.3-1.1 8.4-1.8 12.1L201.5 601.6C228.2 453.3 386.9 357.7 556 388.1 725 418.6 840.4 563.5 813.7 711.8z" fill="#ffffff" data-fill-palette-color="background"></path><path d="M564.4 298.2c-21.2-3.8-41.5 10.3-45.3 31.5-3.8 21.2 10.3 41.5 31.5 45.3 21.2 3.8 41.5-10.3 45.3-31.5C599.7 322.3 585.6 302 564.4 298.2zM585.2 325.3c-1.6 9.1-10.3 15.1-19.4 13.5-9.1-1.6-15.1-10.3-13.5-19.4 1.6-9.1 10.3-15.1 19.4-13.5C580.8 307.5 586.8 316.2 585.2 325.3z" fill="#ffffff" data-fill-palette-color="background"></path><path d="M841.6 755H175.5c-6.1 0-11-5-11-11l0 0c0-6.1 5-11 11-11h666.1c6.1 0 11 5 11 11l0 0C852.6 750.1 847.7 755 841.6 755z" fill="#ffffff" data-fill-palette-color="background"></path><path d="M200.8 475.3c5.6 14.9 5.6 28.3 1.5 38-3.7 9.7-11.5 15.8-11.1 15.8-0.5 0 2.6-6 1.5-15.8-0.7-9.7-5.5-23.2-11.1-38-5.6-14.9-5.6-28.3-1.5-38 3.7-9.7 11.5-15.8 11.1-15.8 0.5 0-2.6 6-1.5 15.8C190.4 447 195.3 460.4 200.8 475.3z" fill="#ffffff" data-fill-palette-color="background"></path><path d="M221.8 421.3c5.6 14.9 5.6 28.3 1.5 38-3.7 9.7-11.5 15.8-11.1 15.8-0.5 0 2.6-6 1.5-15.8-0.7-9.7-5.5-23.2-11.1-38-5.6-14.9-5.6-28.3-1.5-38 3.7-9.7 11.5-15.8 11.1-15.8 0.5 0-2.6 6-1.5 15.8C211.4 393 216.3 406.4 221.8 421.3z" fill="#ffffff" data-fill-palette-color="background"></path><path d="M344.6 298.8c-5.6 14.9-5.6 28.3-1.5 38 3.7 9.7 11.5 15.8 11.1 15.8 0.5 0-2.6-6-1.5-15.8 0.7-9.7 5.5-23.2 11.1-38 5.6-14.9 5.6-28.3 1.5-38-3.7-9.7-11.5-15.8-11.1-15.8-0.5 0 2.6 6 1.5 15.8C355 270.5 350.2 283.9 344.6 298.8z" fill="#ffffff" data-fill-palette-color="background"></path></g></svg></g></svg></g></svg></g></svg></g></svg></g><defs></defs></svg><rect width="395.52" height="110.70931994034389" fill="none" stroke="none" visibility="hidden"></rect></g></svg></g></svg>