<svg xmlns="http://www.w3.org/2000/svg" version="1.1" xmlns:xlink="http://www.w3.org/1999/xlink" xmlns:svgjs="http://svgjs.dev/svgjs" width="1000" height="1125" viewBox="0 0 1000 1125"><g transform="matrix(1,0,0,1,1.7053025658242404e-13,0)"><svg viewBox="0 0 320 360" data-background-color="#528265" preserveAspectRatio="xMidYMid meet" height="1125" width="1000" xmlns="http://www.w3.org/2000/svg" xmlns:xlink="http://www.w3.org/1999/xlink"><g id="tight-bounds" transform="matrix(1,0,0,1,0,0)"><svg viewBox="0 0 320 360" height="360" width="320"><g><svg></svg></g><g><svg viewBox="0 0 320 360" height="360" width="320"><g><path xmlns="http://www.w3.org/2000/svg" d="M20.961 227.22l3.726 4.658-1.863-6.056c-0.466-2.795-3.726 0.466-1.863 1.398M25.153 224.425c1.397 2.329 2.795 4.658 2.795 6.987 0 3.261 2.795 4.658 5.123 5.589-3.261-3.726-5.124-13.974-7.918-12.576M204.017 26.929c7.918 0 15.371-0.932 23.756 0.931 20.495 5.124 37.729 15.371 49.374 29.811l32.606 52.169c1.397 13.042 4.192 27.482 3.726 43.319 3.261 0 2.795-4.658 6.521-5.59-3.726 9.316-5.59 20.961-6.521 34.469-2.329-7.453 0-18.632 0.466-24.687-3.261 5.124-5.124 1.397-5.124-0.932 0.466-3.726-1.397-3.261-2.795-4.658-5.124-4.658-8.384-9.782-12.11-17.7 2.329-6.055 2.795-14.905-4.658-19.563-2.329-1.397-5.124-3.726-6.521-7.453-1.863-5.124-5.124-11.179-4.193-19.097 0.466-2.329-6.987 5.124-11.179 1.863-18.166-12.576-36.332-27.016-58.224-39.127-11.645 0-20.029-4.192-24.221-9.316-3.726-4.658-0.932-10.713 4.658-11.179 3.261 0 6.987-0.932 9.782 0.932 0.466-1.863 2.329-4.192 4.657-4.192M157.904 16.215l0.932 0.466c4.658 0.932 6.987 7.453 12.11 5.124 0 3.261 0.466 6.521-0.466 8.85-1.397 3.726-5.59 3.726-8.85 3.726-31.208-1.863-49.374 11.179-68.471 22.358-5.124 3.261-10.713 5.59-14.906 9.782-20.029 18.632-41.921 35.866-47.045 70.335l-4.192 38.195c-0.466 4.192-5.124 8.384-4.192 13.508l3.26 22.824c-3.261-3.261-5.124 0.932-4.192 2.795 0.466 1.397 2.329 6.055 5.124 1.863 3.726 6.987 7.453 20.495 12.576 26.55 15.837 18.632 36.332 35.4 53.101 52.169 4.192-0.932 7.453-0.932 8.384-3.727 1.397 2.795-1.397 5.59-3.726 6.056 7.453 4.658 15.837 8.85 27.016 9.781 14.44 0.932 27.948 3.261 40.524 6.522 6.521-1.863 13.042-2.795 20.029-3.261 2.329 0 3.726-3.726 6.521-4.658l0.466-4.658c2.795 4.192 2.329-1.397 0.466-4.192 3.261 2.795 4.192 5.124 5.589 6.987 0-1.397 3.726-6.521 3.727-0.466l0.931-6.055c1.397-0.932 1.863 5.124 3.261 0.931 1.397-4.192 4.192-0.932 6.987-2.329-0.932 1.863-0.466 5.59 2.794 3.261l3.727-3.261c2.329 5.59 6.055 3.261 7.918 2.329 20.495-13.042 40.99-28.413 60.553-43.784l-0.466 6.055 2.329-7.453c2.329 2.329 4.192 0.466 5.124-0.931 2.795-4.658 6.521-9.316 12.577-13.508-7.453 20.029-16.303 35.866-27.482 48.908l-4.658 5.59c0 3.261-0.932 7.453-4.658 7.918-1.863 0.466-5.59-0.932-8.384 1.863-1.397 1.863 3.261 5.59-0.466 2.795-3.261-2.329-6.521 0-10.248 0.932-2.795 0.932 1.863 3.726 2.795 5.589 0.932 1.863 1.863 3.726 1.398 6.056l-5.124-5.59c-6.055 3.261-9.782 9.316-14.906 13.974-2.329 1.863-1.397 5.124-1.397 7.918-3.261 0-6.987-0.932-8.85 0.932-1.397 1.863-0.932 4.658-0.932 7.453-4.658-0.466-5.124-7.453-9.315-6.056-4.192 0.932-8.85 1.397-12.577 3.727 2.795 5.59-4.658 2.329-3.726 3.26-6.987-4.192-13.042-7.453-20.495-4.658-15.837-5.124-35.4-2.795-49.84-0.931 0-2.329 0.466-4.658-0.466-5.124-0.932 2.329-3.726 1.397-3.26 1.397-8.85-6.055-17.7-9.782-27.016-14.905-8.384 0.932-16.303-3.261-18.632-5.59-6.521-6.055-13.974-2.795-20.029-4.192-13.042-3.261-17.7-16.769-19.098-26.084-0.932-4.658-4.658-6.521-6.055-6.056-6.055-19.563-15.371-37.263-22.824-55.429-1.863-4.658-1.397-9.316-1.397-14.44 2.329 0.932 4.658 0.466 4.192-2.794-2.329-15.371-7.918-27.016-13.974-38.195 3.261-15.837 3.726-34.469 11.179-48.443 6.521-12.576 18.632-19.098 27.016-29.811 2.795-3.726 2.795-8.85 5.59-12.11 9.316-9.316 18.632-19.098 28.879-27.482 4.658-3.726 10.247 0 17.234-1.397 2.329-8.384 11.645-15.837 20.495-13.508 3.726 0.932 11.179-8.85 13.508-9.782 3.726-1.397 1.863 3.726 1.863 6.987 8.85-6.987 20.961-10.713 32.14-14.906" fill="#c9efc7" fill-rule="nonzero" stroke="none" stroke-width="1" stroke-linecap="butt" stroke-linejoin="miter" stroke-miterlimit="10" stroke-dasharray="" stroke-dashoffset="0" font-family="none" font-weight="none" font-size="none" text-anchor="none" style="mix-blend-mode: normal" data-fill-palette-color="tertiary"></path></g><g transform="matrix(1,0,0,1,64,98.31933635487232)"><svg viewBox="0 0 192 163.36132729025536" height="163.36132729025536" width="192"><g><svg viewBox="0 0 192 163.36132729025536" height="163.36132729025536" width="192"><g><svg viewBox="0 0 192 163.36132729025536" height="163.36132729025536" width="192"><g transform="matrix(1,0,0,1,0,96.82667382490882)"><svg viewBox="0 0 192 66.53465346534652" height="66.53465346534652" width="192"><g id="textblocktransform"><svg viewBox="0 0 192 66.53465346534652" height="66.53465346534652" width="192" id="textblock"><g><svg viewBox="0 0 192 66.53465346534652" height="66.53465346534652" width="192"><g transform="matrix(1,0,0,1,0,0)"><svg width="192" viewBox="3.9000000953674316 -35 131.29000854492188 45.5" height="66.53465346534652" data-palette-color="#c9efc7"><path d="M22.6 0L22.6-17.9 6.7-17.9 6.7 0 3.9 0 3.9-35 6.7-35 6.7-20.65 22.6-20.65 22.6-35 25.4-35 25.4 0 22.6 0ZM47.1 0L47.3-2.55Q46.1-1.05 44.27-0.25 42.45 0.55 40.6 0.55L40.6 0.55Q31.2 0.55 31.2-8.6L31.2-8.6 31.2-25.05 34-25.05 34-8.25Q34-5.05 35.77-3.5 37.55-1.95 40.6-1.95L40.6-1.95Q43.6-1.95 45.32-3.48 47.05-5 47.05-8.25L47.05-8.25 47.05-25.05 49.85-25.05 49.85 0 47.1 0ZM70.65 0L70.65-17.15Q70.65-20.2 68.87-21.58 67.09-22.95 64.3-22.95L64.3-22.95Q62.6-22.95 60.85-22.48 59.1-22 57.75-21.25L57.75-21.25 57.75 0 54.95 0 54.95-25.05 57.75-25.05 57.55-23.35Q58.75-24.4 60.6-24.93 62.45-25.45 64.45-25.45L64.45-25.45Q67.2-25.45 69.15-24.55L69.15-24.55Q71.15-23.65 72.27-21.85 73.4-20.05 73.4-17.3L73.4-17.3 73.4 0 70.65 0ZM91.34 8.35Q94.64 7.1 94.64 3.15L94.64 3.15 94.64-3.05Q92.54 0.6 87.89 0.6L87.89 0.6Q83.49 0.6 81.04-1.8 78.59-4.2 78.59-8.8L78.59-8.8 78.59-16.25Q78.59-20.65 81.17-23.08 83.74-25.5 88.09-25.5L88.09-25.5Q92.74-25.5 94.84-22.15L94.84-22.15 94.64-25.05 97.44-25.05 97.44 3.2Q97.44 6.2 96.19 7.9 94.94 9.6 92.09 10.5L92.09 10.5 91.34 8.35ZM94.64-16.8Q94.64-19.9 92.64-21.43 90.64-22.95 87.89-22.95L87.89-22.95Q85.24-22.95 83.32-21.33 81.39-19.7 81.39-16L81.39-16 81.39-8.35Q81.39-5.2 83.17-3.6 84.94-2 87.89-2L87.89-2Q90.69-2 92.67-3.73 94.64-5.45 94.64-8.65L94.64-8.65 94.64-16.8ZM100.19 0L100.19-25.05 102.99-25.05 102.84-23.3Q105.19-25.5 108.99-25.5L108.99-25.5Q110.34-25.5 112.69-25.05L112.69-25.05 111.94-22.5Q110.34-23 108.59-23L108.59-23Q106.29-23 104.64-22.15 102.99-21.3 102.99-19.6L102.99-19.6 102.99 0 100.19 0ZM127.49 8.35Q130.84 7.1 130.84 3.15L130.84 3.15 130.84-2.45Q129.89-0.85 127.99-0.13 126.09 0.6 123.89 0.6L123.89 0.6Q119.49 0.6 117.11-1.78 114.74-4.15 114.74-8.8L114.74-8.8 114.74-25.05 117.44-25.05 117.44-8.3Q117.44-5.1 119.19-3.53 120.94-1.95 123.89-1.95L123.89-1.95Q126.99-1.95 128.89-3.5 130.79-5.05 130.79-8.3L130.79-8.3 130.79-18.15Q130.79-20.55 130.94-21.73 131.09-22.9 131.86-23.93 132.64-24.95 134.44-25.5L134.44-25.5 135.19-23.6Q133.49-22.85 133.49-20.1L133.49-20.1 133.49 3.05Q133.49 6.1 132.29 7.85 131.09 9.6 128.24 10.5L128.24 10.5 127.49 8.35Z" opacity="1" transform="matrix(1,0,0,1,0,0)" fill="#c9efc7" class="undefined-text-0" data-fill-palette-color="primary" id="text-0"></path></svg></g></svg></g></svg></g></svg></g><g transform="matrix(1,0,0,1,36.67199999999999,0)"><svg viewBox="0 0 118.65600000000002 87.1176710526316" height="87.1176710526316" width="118.65600000000002"><g><svg xmlns="http://www.w3.org/2000/svg" xmlns:xlink="http://www.w3.org/1999/xlink" version="1.0" x="0" y="0" viewBox="21 28.150390625 57 41.849609375" enable-background="new 0 0 100 100" xml:space="preserve" height="87.1176710526316" width="118.65600000000002" class="icon-icon-0" data-fill-palette-color="accent" id="icon-0"><g fill="#31c48d" data-fill-palette-color="accent"><g fill="#31c48d" data-fill-palette-color="accent"><path d="M51 28.15c-8.271 0-15 6.729-15 15V69c0 0.552 0.448 1 1 1s1-0.448 1-1V43.15c0-7.168 5.832-13 13-13s13 5.832 13 13V69c0 0.552 0.448 1 1 1s1-0.448 1-1V43.15C66 34.879 59.271 28.15 51 28.15z" fill="#31c48d" data-fill-palette-color="accent"></path><path d="M50 43c-0.552 0-1 0.448-1 1v7c0 0.552 0.448 1 1 1h5.167c0.552 0 1-0.448 1-1s-0.448-1-1-1H51v-6C51 43.448 50.552 43 50 43z" fill="#31c48d" data-fill-palette-color="accent"></path><path d="M59 55H44c-0.552 0-1 0.448-1 1s0.448 1 1 1h3.038c-0.041 1.61 0.09 3.564 0.917 5.06 0.712 1.292 1.979 1.694 3.227 1.025 0.67-0.36 1.083-0.896 1.448-1.368C53.112 61.093 53.319 60.875 53.75 60.875c0.205 0 0.257 0.054 0.28 0.077 0.367 0.376 0.331 1.906 0.307 2.919-0.041 1.741-0.08 3.385 0.907 4.32 0.501 0.475 1.142 0.722 1.806 0.722 0.371 0 0.75-0.077 1.116-0.234C59.263 68.207 60 67.13 60 66V56C60 55.448 59.552 55 59 55zM58 66c0 0.394-0.324 0.712-0.624 0.841-0.204 0.088-0.5 0.141-0.756-0.101-0.341-0.324-0.306-1.827-0.283-2.823 0.039-1.664 0.079-3.385-0.877-4.363C55.158 59.244 54.615 58.875 53.75 58.875c-1.451 0-2.174 0.936-2.702 1.62-0.278 0.359-0.518 0.67-0.813 0.828-0.232 0.125-0.31 0.166-0.529-0.23C49.212 60.2 48.993 58.855 49.041 57H58V66z" fill="#31c48d" data-fill-palette-color="accent"></path><circle cx="43.5" cy="44.5" r="1.5" fill="#31c48d" data-fill-palette-color="accent"></circle><circle cx="57.5" cy="44.5" r="1.5" fill="#31c48d" data-fill-palette-color="accent"></circle><path d="M30 41c-0.552 0-1 0.448-1 1v6h-2v-6c0-0.552-0.448-1-1-1s-1 0.448-1 1v6h-2v-6c0-0.552-0.448-1-1-1s-1 0.448-1 1v7c0 0.552 0.448 1 1 1h3v19c0 0.552 0.448 1 1 1s1-0.448 1-1V50h3c0.552 0 1-0.448 1-1v-7C31 41.448 30.552 41 30 41z" fill="#31c48d" data-fill-palette-color="accent"></path><path d="M73.447 41.105c-0.31-0.154-0.678-0.138-0.973 0.044C72.18 41.332 72 41.653 72 42v15 1 11c0 0.552 0.448 1 1 1s1-0.448 1-1V59h3c0.552 0 1-0.448 1-1V47C78 43.423 73.633 41.199 73.447 41.105zM76 57h-2V43.847C74.943 44.59 76 45.71 76 47V57z" fill="#31c48d" data-fill-palette-color="accent"></path></g></g></svg></g></svg></g><g></g></svg></g></svg></g></svg></g></svg></g><defs></defs></svg><rect width="320" height="360" fill="none" stroke="none" visibility="hidden"></rect></g></svg></g></svg>